<svg width="45" height="14" viewBox="0 0 45 14" fill="none" xmlns="http://www.w3.org/2000/svg">
<path d="M8.24609 11.6201V13H1.84766V11.6201H8.24609ZM2.18164 0.203125V13H0.485352V0.203125H2.18164ZM19.4609 6.19727V7.00586C19.4609 7.9668 19.3408 8.82812 19.1006 9.58984C18.8604 10.3516 18.5146 10.999 18.0635 11.5322C17.6123 12.0654 17.0703 12.4727 16.4375 12.7539C15.8105 13.0352 15.1074 13.1758 14.3281 13.1758C13.5723 13.1758 12.8779 13.0352 12.2451 12.7539C11.6182 12.4727 11.0732 12.0654 10.6104 11.5322C10.1533 10.999 9.79883 10.3516 9.54688 9.58984C9.29492 8.82812 9.16895 7.9668 9.16895 7.00586V6.19727C9.16895 5.23633 9.29199 4.37793 9.53809 3.62207C9.79004 2.86035 10.1445 2.21289 10.6016 1.67969C11.0586 1.14063 11.6006 0.730469 12.2275 0.449219C12.8604 0.167969 13.5547 0.0273438 14.3105 0.0273438C15.0898 0.0273438 15.793 0.167969 16.4199 0.449219C17.0527 0.730469 17.5947 1.14063 18.0459 1.67969C18.5029 2.21289 18.8516 2.86035 19.0918 3.62207C19.3379 4.37793 19.4609 5.23633 19.4609 6.19727ZM17.7822 7.00586V6.17969C17.7822 5.41797 17.7031 4.74414 17.5449 4.1582C17.3926 3.57227 17.167 3.08008 16.8682 2.68164C16.5693 2.2832 16.2031 1.98145 15.7695 1.77637C15.3418 1.57129 14.8555 1.46875 14.3105 1.46875C13.7832 1.46875 13.3057 1.57129 12.8779 1.77637C12.4561 1.98145 12.0928 2.2832 11.7881 2.68164C11.4893 3.08008 11.2578 3.57227 11.0938 4.1582C10.9297 4.74414 10.8477 5.41797 10.8477 6.17969V7.00586C10.8477 7.77344 10.9297 8.45312 11.0938 9.04492C11.2578 9.63086 11.4922 10.126 11.7969 10.5303C12.1074 10.9287 12.4736 11.2305 12.8955 11.4355C13.3232 11.6406 13.8008 11.7432 14.3281 11.7432C14.8789 11.7432 15.3682 11.6406 15.7959 11.4355C16.2236 11.2305 16.584 10.9287 16.877 10.5303C17.1758 10.126 17.4014 9.63086 17.5537 9.04492C17.7061 8.45312 17.7822 7.77344 17.7822 7.00586ZM31.458 6.62793V11.3125C31.2998 11.5469 31.0479 11.8105 30.7021 12.1035C30.3564 12.3906 29.8789 12.6426 29.2695 12.8594C28.666 13.0703 27.8867 13.1758 26.9316 13.1758C26.1523 13.1758 25.4346 13.041 24.7783 12.7715C24.1279 12.4961 23.5625 12.0977 23.082 11.5762C22.6074 11.0488 22.2383 10.4102 21.9746 9.66016C21.7168 8.9043 21.5879 8.04883 21.5879 7.09375V6.10059C21.5879 5.14551 21.6992 4.29297 21.9219 3.54297C22.1504 2.79297 22.4844 2.15723 22.9238 1.63574C23.3633 1.1084 23.9023 0.709961 24.541 0.44043C25.1797 0.165039 25.9121 0.0273438 26.7383 0.0273438C27.7168 0.0273438 28.5342 0.197266 29.1904 0.537109C29.8525 0.871094 30.3682 1.33398 30.7373 1.92578C31.1123 2.51758 31.3525 3.19141 31.458 3.94727H29.7617C29.6855 3.48437 29.5332 3.0625 29.3047 2.68164C29.082 2.30078 28.7627 1.99609 28.3467 1.76758C27.9307 1.5332 27.3945 1.41602 26.7383 1.41602C26.1465 1.41602 25.6338 1.52441 25.2002 1.74121C24.7666 1.95801 24.4092 2.26855 24.1279 2.67285C23.8467 3.07715 23.6357 3.56641 23.4951 4.14062C23.3604 4.71484 23.293 5.3623 23.293 6.08301V7.09375C23.293 7.83203 23.3779 8.49121 23.5479 9.07129C23.7236 9.65137 23.9727 10.1465 24.2949 10.5566C24.6172 10.9609 25.001 11.2686 25.4463 11.4795C25.8975 11.6904 26.3955 11.7959 26.9404 11.7959C27.5439 11.7959 28.0332 11.7461 28.4082 11.6465C28.7832 11.541 29.0762 11.418 29.2871 11.2773C29.498 11.1309 29.6592 10.9932 29.7705 10.8643V7.99902H26.8086V6.62793H31.458ZM44.123 6.19727V7.00586C44.123 7.9668 44.0029 8.82812 43.7627 9.58984C43.5225 10.3516 43.1768 10.999 42.7256 11.5322C42.2744 12.0654 41.7324 12.4727 41.0996 12.7539C40.4727 13.0352 39.7695 13.1758 38.9902 13.1758C38.2344 13.1758 37.54 13.0352 36.9072 12.7539C36.2803 12.4727 35.7354 12.0654 35.2725 11.5322C34.8154 10.999 34.4609 10.3516 34.209 9.58984C33.957 8.82812 33.8311 7.9668 33.8311 7.00586V6.19727C33.8311 5.23633 33.9541 4.37793 34.2002 3.62207C34.4521 2.86035 34.8066 2.21289 35.2637 1.67969C35.7207 1.14063 36.2627 0.730469 36.8896 0.449219C37.5225 0.167969 38.2168 0.0273438 38.9727 0.0273438C39.752 0.0273438 40.4551 0.167969 41.082 0.449219C41.7148 0.730469 42.2568 1.14063 42.708 1.67969C43.165 2.21289 43.5137 2.86035 43.7539 3.62207C44 4.37793 44.123 5.23633 44.123 6.19727ZM42.4443 7.00586V6.17969C42.4443 5.41797 42.3652 4.74414 42.207 4.1582C42.0547 3.57227 41.8291 3.08008 41.5303 2.68164C41.2314 2.2832 40.8652 1.98145 40.4316 1.77637C40.0039 1.57129 39.5176 1.46875 38.9727 1.46875C38.4453 1.46875 37.9678 1.57129 37.54 1.77637C37.1182 1.98145 36.7549 2.2832 36.4502 2.68164C36.1514 3.08008 35.9199 3.57227 35.7559 4.1582C35.5918 4.74414 35.5098 5.41797 35.5098 6.17969V7.00586C35.5098 7.77344 35.5918 8.45312 35.7559 9.04492C35.9199 9.63086 36.1543 10.126 36.459 10.5303C36.7695 10.9287 37.1357 11.2305 37.5576 11.4355C37.9854 11.6406 38.4629 11.7432 38.9902 11.7432C39.541 11.7432 40.0303 11.6406 40.458 11.4355C40.8857 11.2305 41.2461 10.9287 41.5391 10.5303C41.8379 10.126 42.0635 9.63086 42.2158 9.04492C42.3682 8.45312 42.4443 7.77344 42.4443 7.00586Z" fill="black"/>
</svg>
